<svg width="26" height="23" viewBox="0 0 26 23" fill="none" xmlns="http://www.w3.org/2000/svg">
<path fill-rule="evenodd" clip-rule="evenodd" d="M14.8536 2L24.2071 11.3536L14.8536 20.7071L14.1464 20L22.2929 11.8536H1V10.8536H22.2929L14.1464 2.70711L14.8536 2Z" fill="white"/>
<path d="M15.2071 1.64645L14.8536 1.29289L14.5 1.64645L13.7929 2.35355L13.4393 2.70711L13.7929 3.06066L21.0858 10.3536H1H0.5V10.8536V11.8536V12.3536H1H21.0858L13.7929 19.6464L13.4393 20L13.7929 20.3536L14.5 21.0607L14.8536 21.4142L15.2071 21.0607L24.5607 11.7071L24.9142 11.3536L24.5607 11L15.2071 1.64645Z" stroke="black" stroke-opacity="0.09"/>
</svg>
