<svg width="143" height="46" viewBox="0 0 143 46" fill="none" xmlns="http://www.w3.org/2000/svg">
<circle cx="40.6695" cy="25.2046" r="19.8414" fill="url(#paint0_radial_1214:353)"/>
<path opacity="0.1" d="M27.6617 14.1674L28.8669 17.1965C29.0923 17.7631 29.768 17.9977 30.2961 17.6928L32.3326 16.5171L33.0892 14.6384L35.0225 13.5222L39.5266 8.4721C40.1941 7.72372 39.4674 6.56814 38.5038 6.8455L32.213 8.65602L30.2797 9.77223L28.2744 9.48815L26.2623 10.6499C25.7259 10.9595 25.5971 11.6774 25.9925 12.1542L27.6617 14.1674Z" fill="black"/>
<path d="M25.898 12.4037L27.1032 15.4328C27.3287 15.9994 28.0043 16.2341 28.5324 15.9292L30.5689 14.7534L31.3255 12.8747L33.2588 11.7585L37.763 6.70843C38.4304 5.96005 37.7038 4.80447 36.7401 5.08182L30.4494 6.89235L28.516 8.00856L26.5107 7.72447L24.4986 8.88618C23.9622 9.19586 23.8335 9.91369 24.2288 10.3905L25.898 12.4037Z" fill="#FFF736"/>
<path fill-rule="evenodd" clip-rule="evenodd" d="M1.86949 16.067C2.66479 15.7773 3.55636 16.0159 4.10078 16.664L9.32528 22.8836L14.5498 16.664C15.0942 16.0159 15.9858 15.7773 16.7811 16.067C17.5764 16.3567 18.1056 17.1128 18.1056 17.9593V31.6534C18.1056 32.7656 17.204 33.6672 16.0918 33.6672C14.9796 33.6672 14.078 32.7656 14.078 31.6534V23.4877L10.8673 27.3099C10.4847 27.7654 9.92019 28.0285 9.32528 28.0285C8.73037 28.0285 8.16591 27.7654 7.78327 27.3099L4.57261 23.4877V31.6534C4.57261 32.7656 3.67098 33.6672 2.55877 33.6672C1.44655 33.6672 0.544922 32.7656 0.544922 31.6534V17.9593C0.544922 17.1128 1.07419 16.3567 1.86949 16.067ZM86.6227 15.9668C83.8694 15.9668 81.6375 18.1987 81.6375 20.9519C81.6375 23.3369 83.3268 25.3878 85.6676 25.8447L90.565 26.8007C91.1326 26.9114 91.5422 27.4087 91.5422 27.987C91.5422 28.6546 91.001 29.1957 90.3335 29.1957H86.4215C85.8535 29.1957 85.3007 29.0122 84.8454 28.6726L84.7815 28.625C83.91 27.9748 82.6765 28.1543 82.0263 29.0258C81.3762 29.8974 81.5557 31.1309 82.4272 31.781L82.4911 31.8287C83.6264 32.6756 85.005 33.1332 86.4215 33.1332H90.3335C93.1756 33.1332 95.4797 30.8292 95.4797 27.987C95.4797 25.5249 93.7358 23.4078 91.3193 22.9361L86.4219 21.9802C85.93 21.8842 85.575 21.4532 85.575 20.9519C85.575 20.3733 86.044 19.9043 86.6227 19.9043H90.4679C91.016 19.9043 91.5488 20.0853 91.9835 20.4191L92.0716 20.4868C92.9339 21.1491 94.1699 20.987 94.8322 20.1247C95.4945 19.2624 95.3323 18.0264 94.47 17.3641L94.3819 17.2964C93.2593 16.4342 91.8834 15.9668 90.4679 15.9668H86.6227ZM117.222 24.55C117.222 21.784 119.196 19.9043 121.206 19.9043C123.217 19.9043 125.19 21.784 125.19 24.55C125.19 27.316 123.217 29.1957 121.206 29.1957C119.196 29.1957 117.222 27.316 117.222 24.55ZM121.206 15.9668C116.641 15.9668 113.284 20.0099 113.284 24.55C113.284 29.0901 116.641 33.1332 121.206 33.1332C125.771 33.1332 129.128 29.0901 129.128 24.55C129.128 20.0099 125.771 15.9668 121.206 15.9668ZM67.3427 16.8067C66.8499 16.1027 65.9575 15.7997 65.1379 16.058C64.3184 16.3164 63.7611 17.0764 63.7611 17.9357V31.1646C63.7611 32.2519 64.6425 33.1333 65.7298 33.1333C66.8171 33.1333 67.6985 32.2519 67.6985 31.1646V24.1812L73.3772 32.2936C73.87 32.9976 74.7624 33.3006 75.5819 33.0423C76.4015 32.7839 76.9588 32.0239 76.9588 31.1646V18.5971C76.9588 17.5098 76.0773 16.6284 74.99 16.6284C73.9027 16.6284 73.0213 17.5098 73.0213 18.5971V24.9191L67.3427 16.8067ZM99.4127 15.9668C100.5 15.9668 101.381 16.8482 101.381 17.9355V22.5813H107.993V17.9355C107.993 16.8482 108.875 15.9668 109.962 15.9668C111.049 15.9668 111.931 16.8482 111.931 17.9355V31.1645C111.931 32.2518 111.049 33.1332 109.962 33.1332C108.875 33.1332 107.993 32.2518 107.993 31.1645V26.5187H101.381V31.1645C101.381 32.2518 100.5 33.1332 99.4127 33.1332C98.3254 33.1332 97.444 32.2518 97.444 31.1645V17.9355C97.444 16.8482 98.3254 15.9668 99.4127 15.9668ZM130.449 15.9668C129.362 15.9668 128.481 16.8482 128.481 17.9355C128.481 19.0229 129.362 19.9043 130.449 19.9043H133.772V31.1645C133.772 32.2518 134.654 33.1332 135.741 33.1332C136.828 33.1332 137.71 32.2518 137.71 31.1645V19.9043H141.032C142.12 19.9043 143.001 19.0229 143.001 17.9355C143.001 16.8482 142.12 15.9668 141.032 15.9668H130.449Z" fill="white"/>
<circle opacity="0.5" cx="49.0459" cy="24.7637" r="7.93654" fill="#36129F"/>
<circle opacity="0.5" cx="37.583" cy="17.709" r="2.64551" fill="#36129F"/>
<circle opacity="0.5" cx="28.7637" cy="28.291" r="1.76368" fill="#36129F"/>
<circle opacity="0.5" cx="39.3457" cy="37.1094" r="1.76368" fill="#36129F"/>
<defs>
<radialGradient id="paint0_radial_1214:353" cx="0" cy="0" r="1" gradientUnits="userSpaceOnUse" gradientTransform="translate(32.292 13.7407) rotate(63.7886) scale(31.9446)">
<stop stop-color="#BB57F9"/>
<stop offset="0.3247" stop-color="#8B4EED"/>
<stop offset="1" stop-color="#5128C6"/>
</radialGradient>
</defs>
</svg>
